<svg width="739" height="506" viewBox="0 0 739 506" fill="none" xmlns="http://www.w3.org/2000/svg">
<mask id="mask0_2065_4861" style="mask-type:alpha" maskUnits="userSpaceOnUse" x="0" y="-20" width="740" height="546">
<rect x="0.824219" y="-19.9087" width="738.351" height="545.909" fill="#D9D9D9"/>
</mask>
<g mask="url(#mask0_2065_4861)">
<path d="M381.059 296.488H402.478V381.853H381.059V372.828C376.879 376.8 372.678 379.669 368.477 381.416C364.277 383.163 359.722 384.036 354.794 384.036C343.772 384.036 334.227 379.753 326.2 371.206C318.152 362.659 314.139 352.032 314.139 339.305C314.139 326.579 318.027 315.328 325.805 306.906C333.582 298.484 343.044 294.283 354.17 294.283C359.286 294.283 364.089 295.261 368.581 297.195C373.073 299.129 377.232 302.04 381.038 305.908V296.488H381.059ZM358.537 314.06C351.924 314.06 346.413 316.389 342.046 321.089C337.658 325.768 335.475 331.777 335.475 339.097C335.475 346.417 337.7 352.531 342.15 357.293C346.621 362.056 352.09 364.426 358.62 364.426C365.15 364.426 370.931 362.097 375.361 357.397C379.79 352.718 382.015 346.584 382.015 338.993C382.015 331.403 379.79 325.56 375.361 320.943C370.931 316.347 365.316 314.039 358.558 314.039L358.537 314.06Z" fill="#4AC3CC"/>
<path d="M416.098 296.488H437.517V305.242C442.383 301.146 446.771 298.297 450.722 296.695C454.673 295.094 458.708 294.283 462.825 294.283C471.289 294.283 478.463 297.236 484.369 303.142C489.339 308.154 491.814 315.599 491.814 325.414V381.811H470.623V344.442C470.623 334.252 470.166 327.494 469.251 324.146C468.336 320.797 466.755 318.26 464.489 316.514C462.222 314.767 459.415 313.893 456.087 313.893C451.762 313.893 448.04 315.349 444.941 318.24C441.842 321.13 439.68 325.144 438.474 330.259C437.85 332.921 437.538 338.702 437.538 347.582V381.832H416.118V296.467L416.098 296.488Z" fill="#4AC3CC"/>
<path d="M504.625 264.173H526.044V332.32L557.591 297.134H584.5L547.734 338.039L588.909 382.479H562.332L526.086 343.134V382.479H504.667V264.173H504.625Z" fill="#4AC3CC"/>
<path d="M652.648 296.488H674.068V381.853H652.648V372.828C648.469 376.8 644.268 379.669 640.067 381.416C635.866 383.163 631.312 384.036 626.384 384.036C615.362 384.036 605.817 379.753 597.79 371.206C589.742 362.659 585.729 352.032 585.729 339.305C585.729 326.579 589.617 315.328 597.416 306.906C605.193 298.484 614.655 294.283 625.781 294.283C630.896 294.283 635.7 295.261 640.192 297.195C644.684 299.129 648.843 302.04 652.648 305.908V296.488ZM630.127 314.06C623.493 314.06 618.003 316.389 613.615 321.089C609.227 325.768 607.044 331.777 607.044 339.097C607.044 346.417 609.269 352.531 613.719 357.293C618.17 362.056 623.66 364.426 630.169 364.426C636.677 364.426 642.479 362.097 646.909 357.397C651.338 352.718 653.563 346.584 653.563 338.993C653.563 331.403 651.338 325.56 646.909 320.943C642.479 316.347 636.885 314.039 630.106 314.039L630.127 314.06Z" fill="#4AC3CC"/>
<path d="M687.063 296.7H708.482V414.215C708.482 422.325 707.692 428.377 706.091 432.369C704.489 436.383 701.973 439.44 698.521 441.582C695.069 443.724 690.91 444.805 686.044 444.805C681.76 444.805 676.415 443.744 670.031 441.582V424.717C673.379 426.339 676.332 427.15 678.89 427.15C681.614 427.15 683.652 426.339 685.004 424.717C686.356 423.094 687.042 420.121 687.042 415.774V296.7H687.063ZM697.731 261.555C701.557 261.555 704.801 262.907 707.505 265.631C710.187 268.334 711.539 271.62 711.539 275.488C711.539 279.356 710.208 282.559 707.546 285.262C704.884 287.965 701.682 289.338 697.96 289.338C694.237 289.338 690.889 287.965 688.186 285.2C685.503 282.434 684.151 279.107 684.151 275.176C684.151 271.246 685.462 268.21 688.103 265.548C690.744 262.886 693.946 261.555 697.71 261.555H697.731Z" fill="#4AC3CC"/>
<path d="M318.773 408.253V404.261H341.17V408.253H332.062V445.124H327.903V408.253H318.794H318.773Z" fill="#231F20"/>
<path d="M355.106 413.435C359.764 413.435 363.632 415.12 366.689 418.489C369.476 421.566 370.869 425.206 370.869 429.406C370.869 433.607 369.393 437.329 366.46 440.469C363.507 443.63 359.743 445.211 355.106 445.211C350.469 445.211 346.684 443.63 343.731 440.469C340.799 437.309 339.322 433.628 339.322 429.406C339.322 425.185 340.716 421.587 343.502 418.509C346.559 415.12 350.427 413.415 355.106 413.415V413.435ZM355.106 417.241C351.862 417.241 349.096 418.426 346.767 420.818C344.438 423.209 343.273 426.1 343.273 429.489C343.273 431.673 343.793 433.711 344.854 435.603C345.914 437.496 347.349 438.951 349.159 439.991C350.968 441.01 352.943 441.53 355.106 441.53C357.269 441.53 359.244 441.01 361.054 439.991C362.863 438.972 364.298 437.496 365.337 435.603C366.398 433.711 366.939 431.673 366.939 429.489C366.939 426.1 365.774 423.209 363.445 420.818C361.116 418.426 358.329 417.241 355.127 417.241H355.106Z" fill="#231F20"/>
<path d="M374.713 413.415H378.602V427.535C378.602 430.987 378.789 433.357 379.163 434.647C379.725 436.498 380.785 437.974 382.345 439.035C383.904 440.116 385.776 440.657 387.96 440.657C390.143 440.657 391.973 440.137 393.491 439.097C395.009 438.057 396.049 436.664 396.631 434.979C397.026 433.815 397.214 431.34 397.214 427.555V413.435H401.186V428.283C401.186 432.442 400.707 435.583 399.73 437.704C398.752 439.825 397.297 441.468 395.342 442.674C393.387 443.859 390.933 444.462 388.001 444.462C385.069 444.462 382.594 443.859 380.619 442.674C378.643 441.468 377.167 439.804 376.21 437.662C375.233 435.52 374.754 432.297 374.754 428.013V413.456L374.713 413.415Z" fill="#231F20"/>
<path d="M405.346 415.514H409.318V419.923C410.503 418.176 411.751 416.886 413.061 416.013C414.371 415.16 415.743 414.724 417.178 414.724C418.26 414.724 419.403 415.077 420.63 415.763L418.592 419.049C417.781 418.696 417.095 418.529 416.534 418.529C415.244 418.529 413.997 419.07 412.79 420.13C411.584 421.191 410.669 422.855 410.045 425.101C409.567 426.827 409.318 430.299 409.318 435.54V445.771H405.346V415.535V415.514Z" fill="#231F20"/>
<path d="M436.431 417.532L433.935 420.111C431.856 418.094 429.818 417.075 427.842 417.075C426.574 417.075 425.492 417.49 424.598 418.322C423.704 419.154 423.246 420.131 423.246 421.234C423.246 422.211 423.621 423.147 424.369 424.041C425.118 424.956 426.678 426.017 429.048 427.244C431.939 428.741 433.915 430.196 434.954 431.569C435.973 432.983 436.493 434.564 436.493 436.331C436.493 438.827 435.62 440.906 433.873 442.653C432.126 444.379 429.943 445.232 427.343 445.232C425.596 445.232 423.933 444.857 422.352 444.088C420.772 443.318 419.462 442.279 418.422 440.948L420.876 438.161C422.872 440.407 424.972 441.53 427.198 441.53C428.757 441.53 430.088 441.031 431.169 440.033C432.272 439.035 432.812 437.849 432.812 436.498C432.812 435.395 432.459 434.397 431.731 433.524C431.003 432.671 429.381 431.59 426.823 430.3C424.099 428.886 422.227 427.493 421.25 426.121C420.273 424.748 419.774 423.188 419.774 421.421C419.774 419.112 420.564 417.22 422.123 415.702C423.683 414.184 425.679 413.415 428.071 413.415C430.858 413.415 433.665 414.787 436.472 417.49L436.431 417.532Z" fill="#231F20"/>
<path d="M484.965 430.005L487.731 432.937C485.963 434.518 484.258 435.87 482.678 437.013C483.801 438.032 485.235 439.446 487.024 441.235C488.438 442.649 489.644 443.938 490.663 445.124H484.965L479.538 439.53C476.127 442.275 473.361 444.063 471.24 444.895C469.119 445.727 466.852 446.143 464.482 446.143C461.341 446.143 458.804 445.248 456.891 443.439C454.978 441.63 454.021 439.384 454.021 436.66C454.021 434.622 454.666 432.584 455.955 430.525C457.245 428.487 459.865 425.888 463.837 422.748C461.591 420.044 460.156 418.048 459.511 416.758C458.867 415.469 458.555 414.242 458.555 413.078C458.555 411.04 459.345 409.355 460.926 408.024C462.735 406.465 465.001 405.695 467.705 405.695C469.41 405.695 470.97 406.049 472.384 406.714C473.798 407.401 474.859 408.316 475.607 409.48C476.356 410.645 476.73 411.872 476.73 413.161C476.73 414.533 476.252 415.989 475.274 417.528C474.318 419.067 472.405 421.063 469.576 423.455L475.774 429.964L479.829 434.081C482.012 432.48 483.717 431.107 484.986 429.964L484.965 430.005ZM466.54 425.867C463.068 428.487 460.801 430.567 459.719 432.106C458.638 433.644 458.097 435.079 458.097 436.389C458.097 437.949 458.763 439.322 460.073 440.528C461.383 441.713 463.005 442.316 464.918 442.316C466.374 442.316 467.788 442.025 469.181 441.422C471.365 440.486 473.881 438.885 476.709 436.618L470.263 429.964C469.14 428.799 467.913 427.427 466.54 425.846V425.867ZM467.039 420.46C469.036 418.921 470.512 417.424 471.531 415.927C472.238 414.866 472.592 413.93 472.592 413.119C472.592 412.183 472.134 411.352 471.219 410.665C470.304 409.979 469.077 409.646 467.559 409.646C466.041 409.646 464.939 410 464.024 410.707C463.109 411.414 462.652 412.246 462.652 413.202C462.652 413.951 462.839 414.637 463.213 415.282C464.128 416.862 465.397 418.589 467.06 420.439L467.039 420.46Z" fill="#231F20"/>
<path d="M503.125 408.253V404.261H525.522V408.253H516.413V445.124H512.254V408.253H503.146H503.125Z" fill="#231F20"/>
<path d="M524.754 414.887H528.726V419.296C529.911 417.549 531.159 416.259 532.469 415.386C533.779 414.533 535.152 414.097 536.587 414.097C537.668 414.097 538.812 414.45 540.039 415.136L538.001 418.422C537.19 418.069 536.503 417.902 535.942 417.902C534.653 417.902 533.405 418.443 532.199 419.504C530.993 420.564 530.078 422.228 529.454 424.474C528.975 426.2 528.726 429.672 528.726 434.913V445.144H524.754V414.908V414.887Z" fill="#231F20"/>
<path d="M570.625 414.887V445.124H566.799V439.925C565.177 441.9 563.347 443.398 561.309 444.396C559.271 445.394 557.066 445.893 554.654 445.893C550.37 445.893 546.71 444.333 543.695 441.235C540.659 438.136 539.141 434.351 539.141 429.901C539.141 425.451 540.68 421.833 543.736 418.734C546.793 415.636 550.474 414.097 554.779 414.097C557.253 414.097 559.499 414.617 561.517 415.677C563.534 416.738 565.301 418.318 566.819 420.439V414.887H570.646H570.625ZM555.07 417.861C552.907 417.861 550.911 418.401 549.081 419.462C547.251 420.522 545.795 422.02 544.714 423.954C543.632 425.888 543.092 427.905 543.092 430.068C543.092 432.23 543.632 434.227 544.735 436.181C545.816 438.115 547.292 439.634 549.143 440.715C550.994 441.796 552.949 442.337 555.07 442.337C557.191 442.337 559.208 441.796 561.121 440.736C563.035 439.654 564.49 438.219 565.53 436.369C566.549 434.539 567.069 432.48 567.069 430.172C567.069 426.678 565.925 423.746 563.617 421.396C561.309 419.046 558.48 417.861 555.112 417.861H555.07Z" fill="#231F20"/>
<path d="M573.686 414.887H577.824L587.973 436.93L597.996 414.887H602.155L588.305 445.124H587.578L573.645 414.887H573.686Z" fill="#231F20"/>
<path d="M630.682 434.376L633.968 436.102C632.886 438.224 631.659 439.929 630.245 441.218C628.831 442.507 627.251 443.506 625.483 444.171C623.716 444.857 621.719 445.19 619.494 445.19C614.566 445.19 610.698 443.568 607.932 440.345C605.166 437.121 603.752 433.461 603.752 429.385C603.752 425.538 604.937 422.128 607.287 419.133C610.282 415.307 614.274 413.415 619.265 413.415C624.256 413.415 628.54 415.369 631.618 419.279C633.801 422.045 634.924 425.476 634.966 429.614H607.765C607.849 433.129 608.972 435.998 611.134 438.244C613.297 440.49 615.98 441.613 619.182 441.613C620.721 441.613 622.218 441.343 623.674 440.823C625.13 440.282 626.357 439.575 627.396 438.681C628.415 437.787 629.518 436.352 630.703 434.397L630.682 434.376ZM630.682 426.245C630.162 424.166 629.414 422.502 628.415 421.275C627.417 420.028 626.107 419.029 624.485 418.281C622.842 417.511 621.137 417.137 619.328 417.137C616.354 417.137 613.817 418.094 611.675 420.007C610.115 421.4 608.93 423.48 608.14 426.266H630.682V426.245Z" fill="#231F20"/>
<path d="M638.795 403.221H642.684V445.124H638.795V403.221Z" fill="#231F20"/>
<path d="M663.122 417.532L660.627 420.111C658.547 418.094 656.509 417.075 654.534 417.075C653.265 417.075 652.184 417.49 651.29 418.322C650.395 419.154 649.938 420.131 649.938 421.234C649.938 422.211 650.312 423.147 651.061 424.041C651.809 424.956 653.369 426.017 655.74 427.244C658.63 428.741 660.606 430.196 661.646 431.569C662.665 432.983 663.185 434.564 663.185 436.331C663.185 438.827 662.311 440.906 660.564 442.653C658.818 444.379 656.634 445.232 654.035 445.232C652.288 445.232 650.624 444.857 649.044 444.088C647.463 443.318 646.153 442.279 645.113 440.948L647.567 438.161C649.564 440.407 651.664 441.53 653.889 441.53C655.449 441.53 656.78 441.031 657.882 440.033C658.984 439.035 659.525 437.849 659.525 436.498C659.525 435.395 659.171 434.397 658.443 433.524C657.715 432.671 656.093 431.59 653.535 430.3C650.811 428.886 648.94 427.493 647.962 426.121C646.985 424.748 646.486 423.188 646.486 421.421C646.486 419.112 647.276 417.22 648.836 415.702C650.395 414.184 652.392 413.415 654.783 413.415C657.57 413.415 660.377 414.787 663.185 417.49L663.122 417.532Z" fill="#231F20"/>
<path d="M269.574 334.177L242.623 360.649L237.362 366.326L216.483 387.205L208.831 394.462L158.173 445.161L139.666 426.653L82.7282 369.737L46.7732 333.802C-14.5104 272.519 -14.5104 172.369 46.7732 111.085V111.314C108.057 50.0513 208.311 49.4067 269.553 111.792H269.574C330.857 172.099 330.857 272.893 269.574 334.177Z" fill="#4AC3CC"/>
<path d="M247.937 168.747C239.598 155.251 228.202 145.498 213.77 139.468C199.339 133.437 175.778 130.401 143.108 130.401H82.7188V369.733L139.656 426.65V302.835C168.666 302.835 188.65 301.275 199.65 298.156C218.345 292.729 233.152 283.1 244.069 269.292C254.987 255.463 260.435 238.099 260.435 217.242C260.435 198.401 256.276 182.223 247.937 168.747ZM200.545 234.169C197.363 238.848 192.996 242.217 187.444 244.255C181.891 246.314 171.993 247.333 157.748 247.333H139.656V210.088L155.731 185.924C173.344 185.924 185.406 187.9 191.915 191.83C200.857 197.133 205.328 205.576 205.328 217.138C205.328 223.792 203.747 229.469 200.545 234.169Z" fill="white"/>
<path fill-rule="evenodd" clip-rule="evenodd" d="M139.728 225.206L139.479 256.503L180.591 256.836C202.987 257.002 221.911 238.39 222.098 215.973C222.285 193.618 203.673 174.715 181.319 174.549H181.277C158.901 174.362 139.998 192.994 139.811 215.349L139.749 225.185L139.728 225.206Z" fill="#4AC3CC"/>
</g>
</svg>
